HIERARCHY
ROOT Hips
{
	OFFSET 0.000000 0.000000 0.000000
	CHANNELS 6 Xposition Yposition Zposition Xrotation Yrotation Zrotation
	JOINT LeftUpLeg_virtual
	{
		OFFSET 0.000000 0.000000 0.000000
		CHANNELS 3 Xrotation Yrotation Zrotation
		JOINT LeftUpLeg
		{
			OFFSET 10.205400 -3.823500 0.155100
			CHANNELS 3 Xrotation Yrotation Zrotation
			JOINT LeftLeg
			{
				OFFSET 0.708757 -12.982077 0.567790
				CHANNELS 3 Xrotation Yrotation Zrotation
				JOINT LeftFoot
				{
					OFFSET -0.708756 -10.717838 -2.184338
					CHANNELS 3 Xrotation Yrotation Zrotation
					JOINT LeftToeBase
					{
						OFFSET 0.108149 -7.191104 7.560241
						CHANNELS 3 Xrotation Yrotation Zrotation
						JOINT LeftToe_End
						{
							OFFSET 0.070230 0.081724 4.490308
							CHANNELS 3 Xrotation Yrotation Zrotation
							End Site
							{
								OFFSET 0 0 0
							}
						}
					}
				}
			}
		}
	}
	JOINT RightUpLeg_virtual
	{
		OFFSET 0.000000 0.000000 0.000000
		CHANNELS 3 Xrotation Yrotation Zrotation
		JOINT RightUpLeg
		{
			OFFSET -10.205400 -3.823500 0.005500
			CHANNELS 3 Xrotation Yrotation Zrotation
			JOINT RightLeg
			{
				OFFSET -0.708756 -12.982134 0.610632
				CHANNELS 3 Xrotation Yrotation Zrotation
				JOINT RightFoot
				{
					OFFSET 0.708754 -10.717769 -1.945823
					CHANNELS 3 Xrotation Yrotation Zrotation
					JOINT RightToeBase
					{
						OFFSET -0.108140 -7.191069 7.372968
						CHANNELS 3 Xrotation Yrotation Zrotation
						JOINT RightToe_End
						{
							OFFSET -0.070227 0.081735 4.479403
							CHANNELS 3 Xrotation Yrotation Zrotation
							End Site
							{
								OFFSET 0 0 0
							}
						}
					}
				}
			}
		}
	}
	JOINT Spine_virtual
	{
		OFFSET 0.000000 0.000000 0.000000
		CHANNELS 3 Xrotation Yrotation Zrotation
		JOINT Spine
		{
			OFFSET 0.000000 6.876099 0.125700
			CHANNELS 3 Xrotation Yrotation Zrotation
			JOINT Spine1
			{
				OFFSET 0.000000 5.730043 0.104720
				CHANNELS 3 Xrotation Yrotation Zrotation
				JOINT Spine1_split
				{
					OFFSET 0.000000 5.730043 0.104720
					CHANNELS 3 Xrotation Yrotation Zrotation
					JOINT Spine2
					{
						OFFSET 0.000000 5.730043 0.104720
						CHANNELS 3 Xrotation Yrotation Zrotation
						JOINT Neck_virtual
						{
							OFFSET 0.000000 0.000000 0.000000
							CHANNELS 3 Xrotation Yrotation Zrotation
							JOINT Neck
							{
								OFFSET 0.000000 10.314075 0.188496
								CHANNELS 3 Xrotation Yrotation Zrotation
								JOINT Head
								{
									OFFSET 0.000000 7.643700 -2.377400
									CHANNELS 3 Xrotation Yrotation Zrotation
									JOINT HeadTop_End
									{
										OFFSET 0.000000 43.788605 -13.619600
										CHANNELS 3 Xrotation Yrotation Zrotation
										End Site
										{
											OFFSET 0 0 0
										}
									}
								}
							}
						}
						JOINT LeftShoulder_virtual
						{
							OFFSET 0.000000 0.000000 0.000000
							CHANNELS 3 Xrotation Yrotation Zrotation
							JOINT LeftShoulder
							{
								OFFSET 2.196100 4.412489 0.087492
								CHANNELS 3 Xrotation Yrotation Zrotation
								JOINT LeftShoulder_split
								{
									OFFSET 2.196100 4.412489 0.087492
									CHANNELS 3 Xrotation Yrotation Zrotation
									JOINT LeftArm
									{
										OFFSET 8.771219 -2.981674 -0.026999
										CHANNELS 3 Xrotation Yrotation Zrotation
										JOINT LeftForeArm
										{
											OFFSET 8.512804 0.000000 -0.000000
											CHANNELS 3 Xrotation Yrotation Zrotation
											JOINT LeftHand
											{
												OFFSET 18.484802 0.000000 -0.000000
												CHANNELS 3 Xrotation Yrotation Zrotation
												End Site
												{
													OFFSET 0 0 0
												}
											}
										}
									}
								}
							}
						}
						JOINT RightShoulder_virtual
						{
							OFFSET 0.000000 0.000000 0.000000
							CHANNELS 3 Xrotation Yrotation Zrotation
							JOINT RightShoulder
							{
								OFFSET -2.196100 4.412496 0.070690
								CHANNELS 3 Xrotation Yrotation Zrotation
								JOINT RightShoulder_split
								{
									OFFSET -2.196100 4.412496 0.070690
									CHANNELS 3 Xrotation Yrotation Zrotation
									JOINT RightArm
									{
										OFFSET -8.771282 -2.981682 -0.094208
										CHANNELS 3 Xrotation Yrotation Zrotation
										JOINT RightForeArm
										{
											OFFSET -8.494598 0.000000 0.000000
											CHANNELS 3 Xrotation Yrotation Zrotation
											JOINT RightHand
											{
												OFFSET -18.483803 0.000000 0.000001
												CHANNELS 3 Xrotation Yrotation Zrotation
												End Site
												{
													OFFSET 0 0 0
												}
											}
										}
									}
								}
							}
						}
					}
				}
			}
		}
	}
}
MOTION
Frames: 8
Frame Time: 0.03333333
-0.263395 15.836476 -8.552759 0.000000 0.000000 0.000000 2.680310 -11.451207 3.215539 -2.420815 -8.529289 13.318801 116.077002 7.343379 3.919376 17.054253 3.629055 -24.190927 -1.167015 4.146363 41.055929 0.000000 0.000000 0.000000 3.417939 -7.077025 2.423520 7.881001 7.236280 -17.277240 115.173013 8.298477 1.080230 11.549406 3.668122 18.014810 15.021789 25.350083 6.007451 0.000000 0.000000 0.000000 2.947088 -8.327267 1.595867 2.091655 2.649075 -0.535664 0.249987 -0.020933 0.143979 -0.206680 -1.981005 0.784333 0.000000 0.000000 0.000000 0.483099 0.527675 -0.097107 -0.402815 1.506016 -0.962943 -0.504946 -1.619070 0.067444 0.000000 0.000000 0.000000 -0.211650 0.411219 0.049552 0.575876 -3.257781 -20.732353 1.871834 1.910263 -3.468710 13.799334 -21.997604 -48.362937 0.740669 -27.153895 1.104005 0.000000 0.000000 0.000000 -0.486869 0.269955 -0.121636 0.241528 7.425319 23.143493 -5.038806 -5.085967 -2.712873 5.673038 5.961726 63.163383 2.695180 25.024703 0.338843 0.000000 0.000000 0.000000 
-0.218499 15.818031 -8.522770 0.000000 0.000000 0.000000 2.601416 -11.539648 3.089963 -2.439212 -8.579250 13.390349 116.229698 7.332296 3.936831 16.987171 3.669301 -24.392246 -1.215267 4.134265 40.998330 0.000000 0.000000 0.000000 3.377755 -7.170173 2.311716 7.912142 7.173590 -17.091217 115.031000 8.225785 1.073238 11.594623 3.592499 17.959603 14.928669 25.337843 6.077005 0.000000 0.000000 0.000000 2.920430 -8.245972 1.409171 2.147364 2.703955 -0.484853 0.202646 -0.009157 0.098934 -0.087417 -2.209164 0.826504 0.000000 0.000000 0.000000 0.465299 0.519989 -0.101966 -0.158532 1.629377 -1.123153 0.069296 -1.188085 0.145477 0.000000 0.000000 0.000000 -0.283601 0.426475 -0.020329 0.544551 -3.223577 -20.811122 1.839681 2.027681 -3.398460 14.165429 -21.376848 -48.454923 1.001172 -27.581655 1.194847 0.000000 0.000000 0.000000 -0.481242 0.295124 -0.125491 0.268873 7.118857 23.122325 -4.979686 -5.238660 -2.822219 5.520507 5.856091 63.003222 2.652168 25.240565 0.358021 0.000000 0.000000 0.000000 
-0.184311 15.790286 -8.469864 0.000000 0.000000 0.000000 2.519857 -11.706271 2.910939 -2.376783 -8.762515 13.574233 116.407078 7.196308 3.986933 16.858749 3.728675 -24.615198 -1.174764 4.159045 40.969633 0.000000 0.000000 0.000000 3.307101 -7.341225 2.133618 7.872487 7.131561 -16.802962 115.001562 8.116284 0.995362 11.607439 3.509937 17.939876 14.673533 25.322165 6.183353 0.000000 0.000000 0.000000 2.784675 -8.371230 1.172063 2.144978 2.752402 -0.463126 0.143773 0.008016 0.098302 -0.014303 -2.409758 0.913144 0.000000 0.000000 0.000000 0.447859 0.501590 -0.074417 0.239789 1.679120 -0.977437 1.870563 -0.658263 -0.017921 0.000000 0.000000 0.000000 -0.339143 0.402274 -0.055654 0.539104 -2.999996 -20.803175 1.845510 2.085597 -3.249502 14.421762 -19.951959 -48.959428 1.160160 -29.361737 1.271081 0.000000 0.000000 0.000000 -0.482275 0.287628 -0.095367 0.277946 6.658436 23.249090 -4.882346 -5.177105 -2.810344 5.242433 5.440429 62.646072 2.525610 25.263131 0.379527 0.000000 0.000000 0.000000 
-0.162403 15.755391 -8.407789 0.000000 0.000000 0.000000 2.427623 -11.907341 2.694761 -2.225017 -9.053684 13.858660 116.591206 6.951525 4.062057 16.708856 3.833951 -24.816456 -1.036132 4.223452 40.967331 0.000000 0.000000 0.000000 3.204525 -7.589586 1.907644 7.753151 7.112224 -16.422937 115.082554 7.965235 0.859262 11.567940 3.410912 17.947377 14.300424 25.296478 6.324566 0.000000 0.000000 0.000000 2.552910 -8.667549 0.904145 2.076853 2.796165 -0.464024 0.076672 0.024167 0.136700 0.031676 -2.547095 1.032376 0.000000 0.000000 0.000000 0.411565 0.477684 -0.011264 0.743582 1.676412 -0.617156 4.702645 -0.126634 -0.391916 0.000000 0.000000 0.000000 -0.366150 0.348754 -0.052060 0.558081 -2.659556 -20.713298 1.926617 2.089895 -3.040762 14.662485 -17.787366 -49.764471 1.229403 -32.064531 1.377876 0.000000 0.000000 0.000000 -0.485310 0.248545 -0.034615 0.270485 6.098883 23.463897 -4.745268 -4.874518 -2.724155 4.915054 4.770222 62.120611 2.337782 25.073894 0.408632 0.000000 0.000000 0.000000 
-0.141644 15.716110 -8.357115 0.000000 0.000000 0.000000 2.348666 -12.158194 2.457973 -2.014488 -9.409779 14.204830 116.776537 6.632634 4.138088 16.544083 4.016045 -24.985626 -0.846921 4.313313 40.993368 0.000000 0.000000 0.000000 3.109740 -7.911487 1.657892 7.548677 7.114751 -15.977052 115.257803 7.776835 0.675108 11.508650 3.302358 17.964518 13.842460 25.259930 6.493387 0.000000 0.000000 0.000000 2.304536 -9.143091 0.630980 1.960853 2.855635 -0.475322 0.023016 0.039367 0.202578 0.052323 -2.585925 1.122193 0.000000 0.000000 0.000000 0.365636 0.459612 0.080701 1.312060 1.666758 -0.155342 8.264152 0.297748 -0.927379 0.000000 0.000000 0.000000 -0.368609 0.285397 -0.022390 0.594847 -2.298772 -20.562682 2.045996 2.051461 -2.862040 14.919218 -15.068343 -50.736595 1.253760 -35.131341 1.513893 0.000000 0.000000 0.000000 -0.483238 0.196413 0.043932 0.236088 5.515466 23.692292 -4.538522 -4.443566 -2.622345 4.560096 3.877377 61.475753 2.106395 24.666784 0.443675 0.000000 0.000000 0.000000 
-0.116561 15.668837 -8.322849 0.000000 0.000000 0.000000 2.314486 -12.463972 2.217658 -1.836535 -9.783204 14.569287 116.974899 6.262738 4.217736 16.460560 4.263048 -25.167297 -0.665149 4.414063 41.032621 0.000000 0.000000 0.000000 3.080394 -8.301525 1.399788 7.246488 7.156439 -15.489906 115.503280 7.563071 0.478306 11.470356 3.192403 17.970877 13.352030 25.214238 6.683279 0.000000 0.000000 0.000000 2.093992 -9.735331 0.358434 1.841699 2.958701 -0.484600 -0.001880 0.060887 0.280071 -0.009052 -2.477233 1.113410 0.000000 0.000000 0.000000 0.330784 0.462407 0.187859 1.919013 1.660631 0.294792 12.229853 0.555183 -1.561232 0.000000 0.000000 0.000000 -0.351400 0.238664 0.017919 0.645307 -1.989849 -20.367528 2.156200 2.024070 -2.731278 15.196015 -12.187720 -51.747733 1.285850 -38.149485 1.682564 0.000000 0.000000 0.000000 -0.476295 0.152170 0.130302 0.163474 4.973369 23.851388 -4.308760 -3.942918 -2.548120 4.229779 2.843120 60.728380 1.866018 24.084246 0.472340 0.000000 0.000000 0.000000 
-0.093498 15.613614 -8.307264 0.000000 0.000000 0.000000 2.339260 -12.787073 1.982118 -1.778758 -10.115058 14.916491 117.195692 5.842560 4.323075 16.554499 4.551400 -25.440018 -0.490178 4.529078 41.050595 0.000000 0.000000 0.000000 3.125319 -8.717859 1.146200 6.833096 7.259971 -14.986755 115.773018 7.339657 0.299659 11.484453 3.087517 17.956397 12.844271 25.164724 6.887417 0.000000 0.000000 0.000000 1.955103 -10.362016 0.095780 1.776431 3.119429 -0.483889 0.006186 0.096815 0.349721 -0.102334 -2.244868 1.089638 0.000000 0.000000 0.000000 0.321215 0.497801 0.292361 2.522827 1.677668 0.641723 16.278965 0.656487 -2.200250 0.000000 0.000000 0.000000 -0.331481 0.228408 0.060200 0.699014 -1.748130 -20.160164 2.286742 2.109187 -2.588907 15.409255 -9.575918 -52.693731 1.292284 -40.936585 1.823536 0.000000 0.000000 0.000000 -0.466483 0.135273 0.207392 0.055188 4.511051 23.909931 -4.072975 -3.428527 -2.518761 3.907545 1.804459 59.920621 1.632941 23.390893 0.494014 0.000000 0.000000 0.000000 
-0.074656 15.553525 -8.319965 0.000000 0.000000 0.000000 2.441555 -13.111607 1.766340 -1.926867 -10.359356 15.209745 117.446578 5.387477 4.465335 16.806968 4.903301 -25.802766 -0.272161 4.674369 41.018899 0.000000 0.000000 0.000000 3.237398 -9.123616 0.907880 6.298670 7.448357 -14.511797 116.040748 7.122003 0.143248 11.527361 2.994641 17.914772 12.351661 25.116991 7.083878 0.000000 0.000000 0.000000 1.941101 -10.960501 -0.129175 1.814713 3.345574 -0.474484 0.040108 0.148099 0.399332 -0.151443 -2.086930 1.099324 0.000000 0.000000 0.000000 0.360289 0.574198 0.373956 3.079490 1.738033 0.836507 20.068513 0.599384 -2.754791 0.000000 0.000000 0.000000 -0.326246 0.267011 0.099433 0.756560 -1.567697 -19.977156 2.528900 2.323510 -2.464581 15.423972 -7.586703 -53.452278 1.228980 -43.346180 1.858601 0.000000 0.000000 0.000000 -0.455246 0.152782 0.259302 -0.091297 4.176185 23.863971 -3.798529 -2.899027 -2.461286 3.581825 0.917157 59.083479 1.421151 22.689890 0.509141 0.000000 0.000000 0.000000 
